<svg width="296" height="112" viewBox="0 0 296 112" fill="none" xmlns="http://www.w3.org/2000/svg">
<g filter="url(#filter0_ddd)">
<rect x="21" y="21" width="240" height="60" rx="6" fill="url(#paint0_linear)"/>
</g>
<path d="M86.0703 43.8008C83.9707 43.8008 82.2129 44.5039 80.7969 45.8906C79.3711 47.2871 78.668 48.9863 78.668 50.998C78.668 53.0098 79.3711 54.7188 80.7969 56.1055C82.2129 57.502 83.9707 58.1953 86.0703 58.1953C86.7734 58.1953 87.457 58.0977 88.1211 57.9023C88.7852 57.707 89.332 57.4824 89.7422 57.2383C90.1523 56.9844 90.543 56.7012 90.9141 56.3887C91.2852 56.0664 91.5195 55.8418 91.627 55.7148C91.7344 55.5879 91.8125 55.4902 91.8613 55.4121L90.4551 54.0059L90.2988 54.25C90.1816 54.3965 89.9961 54.5723 89.7422 54.7871C89.4883 55.002 89.2051 55.2168 88.873 55.4316C88.541 55.6465 88.1309 55.8223 87.6328 55.9785C87.1348 56.1348 86.6074 56.2129 86.0605 56.2129C84.6055 56.2129 83.375 55.7051 82.3691 54.6992C81.3633 53.6836 80.8555 52.4531 80.8555 51.0078C80.8555 49.5527 81.3633 48.3223 82.3691 47.3164C83.3848 46.3105 84.6152 45.8125 86.0605 45.8125C86.6074 45.8125 87.1348 45.8809 87.623 46.0371C88.1113 46.1934 88.5117 46.3594 88.8145 46.5352C89.127 46.7109 89.4102 46.9258 89.6738 47.1699C89.9473 47.4238 90.1133 47.5898 90.1914 47.6875C90.2695 47.7852 90.3184 47.8535 90.3574 47.9023L91.7539 46.4961L91.5391 46.2227C91.3926 46.0371 91.1582 45.8125 90.8359 45.5488C90.5234 45.2949 90.1523 45.0312 89.7227 44.7578C89.293 44.4941 88.7559 44.2695 88.1016 44.084C87.457 43.8984 86.7734 43.8008 86.0703 43.8008ZM99.3613 50.0996V48.1953H98.8633C98.5312 48.1953 98.1992 48.2441 97.8672 48.332C97.5352 48.4199 97.2715 48.5176 97.0566 48.625C96.8418 48.7324 96.6465 48.8496 96.4512 48.9863C96.2656 49.123 96.1387 49.2109 96.0801 49.2695L95.9531 49.3965V48.4004H93.9512V58H95.9531V52.8047C95.9531 51.9258 96.1875 51.2324 96.6367 50.7441C97.0859 50.2559 97.6914 50.002 98.4531 50.002C98.7852 50.002 99.0879 50.041 99.3613 50.0996ZM109.85 53.8984L109.957 52.9023C109.957 51.5547 109.508 50.4414 108.609 49.543C107.711 48.6445 106.598 48.1953 105.25 48.1953C103.902 48.1953 102.75 48.6836 101.793 49.6406C100.836 50.5977 100.348 51.75 100.348 53.0977C100.348 54.5039 100.846 55.7051 101.832 56.7012C102.818 57.6973 103.99 58.1953 105.348 58.1953C105.855 58.1953 106.354 58.127 106.832 57.9805C107.311 57.834 107.701 57.6777 107.994 57.502C108.297 57.3262 108.58 57.1309 108.844 56.9062C109.117 56.6816 109.293 56.5254 109.371 56.4277C109.449 56.3301 109.508 56.2617 109.547 56.2031L108.248 54.9043L107.945 55.2754C107.75 55.5195 107.408 55.7637 106.92 56.0176C106.432 56.2715 105.914 56.3984 105.348 56.3984C104.576 56.3984 103.912 56.1543 103.346 55.6562C102.779 55.168 102.447 54.582 102.34 53.8984H109.85ZM105.24 49.9043C105.982 49.9043 106.588 50.1191 107.076 50.5488C107.564 50.9785 107.867 51.5254 107.984 52.1992H102.428C102.604 51.5254 102.936 50.9785 103.424 50.5488C103.912 50.1191 104.518 49.9043 105.24 49.9043ZM119.85 58V51.7988C119.85 50.7832 119.469 49.9336 118.727 49.2402C117.975 48.5469 117.018 48.1953 115.846 48.1953C115.377 48.1953 114.918 48.2637 114.479 48.3906C114.039 48.5176 113.688 48.6641 113.424 48.8203C113.15 48.9863 112.896 49.1719 112.662 49.377C112.428 49.582 112.271 49.7285 112.203 49.8066C112.135 49.8848 112.086 49.9531 112.047 50.002L113.346 51.3008L113.609 50.959C113.766 50.7441 114.049 50.5391 114.459 50.3242C114.869 50.1094 115.338 50.002 115.846 50.002C116.432 50.002 116.91 50.1777 117.281 50.5195C117.652 50.8711 117.848 51.291 117.848 51.7988L114.342 52.4043C113.473 52.5508 112.789 52.8926 112.291 53.4199C111.793 53.957 111.549 54.6211 111.549 55.4121C111.549 56.1348 111.871 56.7891 112.516 57.3555C113.16 57.9219 113.971 58.2051 114.947 58.2051C115.279 58.2051 115.602 58.1562 115.934 58.0781C116.256 57.9902 116.529 57.8926 116.744 57.7852C116.959 57.6777 117.154 57.5605 117.34 57.4238C117.525 57.2871 117.652 57.1992 117.711 57.1406C117.77 57.082 117.818 57.0332 117.848 57.0137V58.0098L119.85 58ZM115.25 56.4082C114.723 56.4082 114.312 56.2812 114 56.0469C113.688 55.8027 113.541 55.5195 113.541 55.1973C113.541 54.8555 113.648 54.5723 113.873 54.3477C114.088 54.1133 114.381 53.9668 114.742 53.9082L117.848 53.4102V53.6055C117.848 54.5039 117.613 55.1875 117.154 55.6758C116.695 56.1641 116.061 56.4082 115.25 56.4082ZM123.854 47.1992C123.854 48 123.521 48.4004 122.857 48.4004H121.852V50.1973H123.658V55.1973C123.648 57.1992 124.576 58.1953 126.441 58.1953C126.988 58.1953 127.457 58.1367 127.848 58V56.2031L127.701 56.2422C127.613 56.2812 127.486 56.3203 127.32 56.3496C127.154 56.3887 126.998 56.3984 126.842 56.3984C126.5 56.3984 126.217 56.291 125.992 56.0566C125.758 55.832 125.65 55.5391 125.65 55.1777V50.1973H127.652V48.4004H125.65V45.1973H123.854V47.1992ZM139.146 53.8984L139.254 52.9023C139.254 51.5547 138.805 50.4414 137.906 49.543C137.008 48.6445 135.895 48.1953 134.547 48.1953C133.199 48.1953 132.047 48.6836 131.09 49.6406C130.133 50.5977 129.645 51.75 129.645 53.0977C129.645 54.5039 130.143 55.7051 131.129 56.7012C132.115 57.6973 133.287 58.1953 134.645 58.1953C135.152 58.1953 135.65 58.127 136.129 57.9805C136.607 57.834 136.998 57.6777 137.291 57.502C137.594 57.3262 137.877 57.1309 138.141 56.9062C138.414 56.6816 138.59 56.5254 138.668 56.4277C138.746 56.3301 138.805 56.2617 138.844 56.2031L137.545 54.9043L137.242 55.2754C137.047 55.5195 136.705 55.7637 136.217 56.0176C135.729 56.2715 135.211 56.3984 134.645 56.3984C133.873 56.3984 133.209 56.1543 132.643 55.6562C132.076 55.168 131.744 54.582 131.637 53.8984H139.146ZM134.537 49.9043C135.279 49.9043 135.885 50.1191 136.373 50.5488C136.861 50.9785 137.164 51.5254 137.281 52.1992H131.725C131.9 51.5254 132.232 50.9785 132.721 50.5488C133.209 50.1191 133.814 49.9043 134.537 49.9043ZM155.846 43.9961V54.1035L148.043 43.9961H146.148V58H148.346V47.9023L156.148 58H158.043V43.9961H155.846ZM170.24 53.8984L170.348 52.9023C170.348 51.5547 169.898 50.4414 169 49.543C168.102 48.6445 166.988 48.1953 165.641 48.1953C164.293 48.1953 163.141 48.6836 162.184 49.6406C161.227 50.5977 160.738 51.75 160.738 53.0977C160.738 54.5039 161.236 55.7051 162.223 56.7012C163.209 57.6973 164.381 58.1953 165.738 58.1953C166.246 58.1953 166.744 58.127 167.223 57.9805C167.701 57.834 168.092 57.6777 168.385 57.502C168.688 57.3262 168.971 57.1309 169.234 56.9062C169.508 56.6816 169.684 56.5254 169.762 56.4277C169.84 56.3301 169.898 56.2617 169.938 56.2031L168.639 54.9043L168.336 55.2754C168.141 55.5195 167.799 55.7637 167.311 56.0176C166.822 56.2715 166.305 56.3984 165.738 56.3984C164.967 56.3984 164.303 56.1543 163.736 55.6562C163.17 55.168 162.838 54.582 162.73 53.8984H170.24ZM165.631 49.9043C166.373 49.9043 166.979 50.1191 167.467 50.5488C167.955 50.9785 168.258 51.5254 168.375 52.1992H162.818C162.994 51.5254 163.326 50.9785 163.814 50.5488C164.303 50.1191 164.908 49.9043 165.631 49.9043ZM177.838 48.4004L175.641 55.002L173.434 48.4004H171.334L174.635 58H176.539L178.736 51.6035L180.934 58H182.838L186.139 48.4004H184.039L181.832 55.002L179.635 48.4004H177.838ZM199.039 43.8008C196.939 43.8008 195.182 44.5039 193.766 45.8906C192.34 47.2871 191.637 48.9863 191.637 50.998C191.637 53.0098 192.34 54.7188 193.766 56.1055C195.182 57.502 196.939 58.1953 199.039 58.1953C199.742 58.1953 200.426 58.0977 201.09 57.9023C201.754 57.707 202.301 57.4824 202.711 57.2383C203.121 56.9844 203.512 56.7012 203.883 56.3887C204.254 56.0664 204.488 55.8418 204.596 55.7148C204.703 55.5879 204.781 55.4902 204.83 55.4121L203.424 54.0059L203.268 54.25C203.15 54.3965 202.965 54.5723 202.711 54.7871C202.457 55.002 202.174 55.2168 201.842 55.4316C201.51 55.6465 201.1 55.8223 200.602 55.9785C200.104 56.1348 199.576 56.2129 199.029 56.2129C197.574 56.2129 196.344 55.7051 195.338 54.6992C194.332 53.6836 193.824 52.4531 193.824 51.0078C193.824 49.5527 194.332 48.3223 195.338 47.3164C196.354 46.3105 197.584 45.8125 199.029 45.8125C199.576 45.8125 200.104 45.8809 200.592 46.0371C201.08 46.1934 201.48 46.3594 201.783 46.5352C202.096 46.7109 202.379 46.9258 202.643 47.1699C202.916 47.4238 203.082 47.5898 203.16 47.6875C203.238 47.7852 203.287 47.8535 203.326 47.9023L204.723 46.4961L204.508 46.2227C204.361 46.0371 204.127 45.8125 203.805 45.5488C203.492 45.2949 203.121 45.0312 202.691 44.7578C202.262 44.4941 201.725 44.2695 201.07 44.084C200.426 43.8984 199.742 43.8008 199.039 43.8008ZM209.127 43.9961H207.135V58H209.127V52.8047C209.127 51.9258 209.352 51.2324 209.801 50.7441C210.25 50.2559 210.865 50.002 211.627 50.002C212.281 50.002 212.828 50.2363 213.268 50.6855C213.707 51.1445 213.932 51.7207 213.932 52.4141V58.0098H215.934V52.4141C215.934 51.125 215.572 50.1094 214.85 49.3477C214.127 48.5859 213.18 48.2051 212.027 48.2051C211.695 48.2051 211.363 48.2441 211.041 48.332C210.709 48.4199 210.445 48.5176 210.23 48.625C210.016 48.7324 209.811 48.8496 209.625 48.9863C209.439 49.123 209.312 49.2207 209.254 49.2793C209.195 49.3379 209.146 49.377 209.127 49.4062V43.9961ZM226.432 58V51.7988C226.432 50.7832 226.051 49.9336 225.309 49.2402C224.557 48.5469 223.6 48.1953 222.428 48.1953C221.959 48.1953 221.5 48.2637 221.061 48.3906C220.621 48.5176 220.27 48.6641 220.006 48.8203C219.732 48.9863 219.479 49.1719 219.244 49.377C219.01 49.582 218.854 49.7285 218.785 49.8066C218.717 49.8848 218.668 49.9531 218.629 50.002L219.928 51.3008L220.191 50.959C220.348 50.7441 220.631 50.5391 221.041 50.3242C221.451 50.1094 221.92 50.002 222.428 50.002C223.014 50.002 223.492 50.1777 223.863 50.5195C224.234 50.8711 224.43 51.291 224.43 51.7988L220.924 52.4043C220.055 52.5508 219.371 52.8926 218.873 53.4199C218.375 53.957 218.131 54.6211 218.131 55.4121C218.131 56.1348 218.453 56.7891 219.098 57.3555C219.742 57.9219 220.553 58.2051 221.529 58.2051C221.861 58.2051 222.184 58.1562 222.516 58.0781C222.838 57.9902 223.111 57.8926 223.326 57.7852C223.541 57.6777 223.736 57.5605 223.922 57.4238C224.107 57.2871 224.234 57.1992 224.293 57.1406C224.352 57.082 224.4 57.0332 224.43 57.0137V58.0098L226.432 58ZM221.832 56.4082C221.305 56.4082 220.895 56.2812 220.582 56.0469C220.27 55.8027 220.123 55.5195 220.123 55.1973C220.123 54.8555 220.23 54.5723 220.455 54.3477C220.67 54.1133 220.963 53.9668 221.324 53.9082L224.43 53.4102V53.6055C224.43 54.5039 224.195 55.1875 223.736 55.6758C223.277 56.1641 222.643 56.4082 221.832 56.4082ZM230.436 47.1992C230.436 48 230.104 48.4004 229.439 48.4004H228.434V50.1973H230.24V55.1973C230.23 57.1992 231.158 58.1953 233.023 58.1953C233.57 58.1953 234.039 58.1367 234.43 58V56.2031L234.283 56.2422C234.195 56.2812 234.068 56.3203 233.902 56.3496C233.736 56.3887 233.58 56.3984 233.424 56.3984C233.082 56.3984 232.799 56.291 232.574 56.0566C232.34 55.832 232.232 55.5391 232.232 55.1777V50.1973H234.234V48.4004H232.232V45.1973H230.436V47.1992Z" fill="white"/>
<path fill-rule="evenodd" clip-rule="evenodd" d="M65 50H59V44C59 43.447 58.552 43 58 43C57.448 43 57 43.447 57 44V50H51C50.448 50 50 50.447 50 51C50 51.553 50.448 52 51 52H57V58C57 58.553 57.448 59 58 59C58.552 59 59 58.553 59 58V52H65C65.552 52 66 51.553 66 51C66 50.447 65.552 50 65 50Z" fill="#231F20"/>
<mask id="mask0" mask-type="alpha" maskUnits="userSpaceOnUse" x="50" y="43" width="16" height="16">
<path fill-rule="evenodd" clip-rule="evenodd" d="M65 50H59V44C59 43.447 58.552 43 58 43C57.448 43 57 43.447 57 44V50H51C50.448 50 50 50.447 50 51C50 51.553 50.448 52 51 52H57V58C57 58.553 57.448 59 58 59C58.552 59 59 58.553 59 58V52H65C65.552 52 66 51.553 66 51C66 50.447 65.552 50 65 50Z" fill="white"/>
</mask>
<g mask="url(#mask0)">
<rect x="46" y="39" width="24" height="24" fill="white"/>
</g>
<defs>
<filter id="filter0_ddd" x="0" y="0" width="296" height="112" filterUnits="userSpaceOnUse" color-interpolation-filters="sRGB">
<feFlood flood-opacity="0" result="BackgroundImageFix"/>
<feColorMatrix in="SourceAlpha" type="matrix" values="0 0 0 0 0 0 0 0 0 0 0 0 0 0 0 0 0 0 127 0"/>
<feOffset dx="10" dy="6"/>
<feGaussianBlur stdDeviation="12.5"/>
<feColorMatrix type="matrix" values="0 0 0 0 0.188235 0 0 0 0 0.278431 0 0 0 0 0.368627 0 0 0 0.15 0"/>
<feBlend mode="normal" in2="BackgroundImageFix" result="effect1_dropShadow"/>
<feColorMatrix in="SourceAlpha" type="matrix" values="0 0 0 0 0 0 0 0 0 0 0 0 0 0 0 0 0 0 127 0"/>
<feOffset dx="4" dy="4"/>
<feGaussianBlur stdDeviation="12.5"/>
<feColorMatrix type="matrix" values="0 0 0 0 0.188235 0 0 0 0 0.278431 0 0 0 0 0.368627 0 0 0 0.05 0"/>
<feBlend mode="normal" in2="effect1_dropShadow" result="effect2_dropShadow"/>
<feColorMatrix in="SourceAlpha" type="matrix" values="0 0 0 0 0 0 0 0 0 0 0 0 0 0 0 0 0 0 127 0"/>
<feOffset dx="6" dy="6"/>
<feGaussianBlur stdDeviation="12.5"/>
<feColorMatrix type="matrix" values="0 0 0 0 0.188235 0 0 0 0 0.278431 0 0 0 0 0.368627 0 0 0 0.15 0"/>
<feBlend mode="normal" in2="effect2_dropShadow" result="effect3_dropShadow"/>
<feBlend mode="normal" in="SourceGraphic" in2="effect3_dropShadow" result="shape"/>
</filter>
<linearGradient id="paint0_linear" x1="21" y1="21" x2="263.722" y2="66.4731" gradientUnits="userSpaceOnUse">
<stop stop-color="#707C97"/>
<stop offset="1" stop-color="#30475E"/>
</linearGradient>
</defs>
</svg>
